<svg xmlns="http://www.w3.org/2000/svg" viewBox="0 0 500 500" role="img" aria-labelledby="title"><title id="title">Materials in motion: metal coils, mineral facets and exchange</title><circle cx="250" cy="250" r="226" fill="#fff"/><path d="M92 192a177 177 0 0 1 291-66M408 302A177 177 0 0 1 116 391" fill="none" stroke="#003087" stroke-width="3"/><path d="m363 120 24 9-3-26M137 397l-25-8 4 26" fill="none" stroke="#003087" stroke-width="3"/><circle cx="104" cy="161" r="7" fill="#059bd6"/><circle cx="397" cy="335" r="7" fill="#059bd6"/><path d="m91 270 88-51 88 51v100l-88 51-88-51z" fill="#003087"/><path d="m91 270 88 51 88-51-88-51z" fill="#059bd6"/><path d="M179 321v100l88-51V270z" fill="#b2b2b2"/><path d="m111 281 68 39 68-39m-68 40v77" stroke="#fff" stroke-width="2" fill="none"/><path d="m271 171 65-45 70 46-13 88-89 15-45-50z" fill="#059bd6"/><path d="m271 171 65 24 70-23-70-46zm65 24-32 80 89-15z" fill="#003087"/><path d="m271 171 65 24-77 30m77-30 57 65" stroke="#fff" stroke-width="2" fill="none"/><path d="m238 345 63-37 105 60-64 37z" fill="#b2b2b2"/><path d="M238 345v24l104 60v-24z" fill="#003087"/><path d="m342 405 64-37v24l-64 37z" fill="#059bd6"/><path d="m265 343 104 59m-82-72 104 59" stroke="#fff" stroke-width="3"/><ellipse cx="192" cy="142" rx="42" ry="56" transform="rotate(-30 192 142)" fill="#003087"/><ellipse cx="181" cy="135" rx="30" ry="43" transform="rotate(-30 181 135)" fill="#b2b2b2"/><ellipse cx="181" cy="135" rx="16" ry="27" transform="rotate(-30 181 135)" fill="#fff"/><path d="M77 242h37m-19-18v37M392 93v26m-13-13h26" stroke="#b2b2b2" stroke-width="2"/></svg>
